<svg width="63" height="63" xmlns="http://www.w3.org/2000/svg" xmlns:xlink="http://www.w3.org/1999/xlink" xmlns:svgjs="http://svgjs.com/svgjs" fill="#e41c26"><svg xmlns="http://www.w3.org/2000/svg" width="63" height="63" viewBox="0 0.105 62.395 62.395"><path paint-order="stroke fill markers" fill-rule="evenodd" d="M59.275 48.634V34.422c0-.276-.11-.54-.304-.735l-5.505-5.505h3.73c.41 0 .783-.242.95-.617l4.16-9.36a1.04 1.04 0 0 0-.699-1.43l-4.16-1.04a1.04 1.04 0 0 0-1.182.543l-2.832 5.665H41.597a1.04 1.04 0 0 0-1.04 1.04v4.16c0 .574.465 1.04 1.04 1.04h3.729l7.71 7.71v12.71l-4.647 5.577h-6.664l.124-.03a1.04 1.04 0 0 0 .734-1.339l-1.04-3.12a1.04 1.04 0 0 0-.986-.71H37.19l-2.91-10.672a1.048 1.048 0 0 0-.074-.192l-5.09-10.18v-3.13l1.94 1.15c.16.095.344.146.53.145h2.86a1.04 1.04 0 0 0 1.018-.827l.65-3.12a1.04 1.04 0 0 0-.889-1.244l-2.704-.338-2.398-2.957a3.917 3.917 0 0 0-.006-4l-2.04-3.4v-.752h.26a1.822 1.822 0 0 0 1.82-1.82V3.782c-.001-.528-.124-1.05-.36-1.522A3.875 3.875 0 0 0 26.483.11a.6.6 0 0 0-.095-.005h-3.384a6.326 6.326 0 0 0-4.501 1.864 4.257 4.257 0 0 1-3.03 1.255h-2.994A1.04 1.04 0 0 0 11.744 5l1.56 1.56a6.326 6.326 0 0 0 4.5 1.865h.343a6.347 6.347 0 0 0 3.53-1.07l.161-.107v2.217c-.06 0-.12.006-.179.016-.93.081-1.8.488-2.458 1.15l-4.616 4.617a3.616 3.616 0 0 0-1.066 2.573v.062c0 .852.299 1.676.843 2.33l4.598 5.516c.197.238.49.375.798.374h.754a8.882 8.882 0 0 0 .107 3.49l-2.798 8.393-7.95 6.956-2.92.974a1.04 1.04 0 0 0-.602.52l-1.04 2.08a1.04 1.04 0 0 0 .04 1l2.797 4.665H4.16a4.16 4.16 0 1 0 0 8.32h57.195a1.04 1.04 0 0 0 1.04-1.04v-8.32c0-.224-.073-.443-.208-.624l-2.912-3.882zM29.118 19.677l2.052 2.531c.169.209.412.343.678.377l2.001.25-.247 1.188h-1.729l-2.755-1.633v-2.713zM32.3 38.954l2.813 10.315-2.27.568-2.229-5.202a16.2 16.2 0 0 1-.821-2.44l-.707-2.826a1.045 1.045 0 0 0-.162-.352l-5.153-7.213-.572-1.145a6.953 6.953 0 0 1-.505-1.336 6.832 6.832 0 0 1-.067-3.22h4.41v2.08c0 .16.037.32.11.464L32.3 38.954zm-.356 15.226H12.648l.16-.053c.425-.142.71-.54.71-.987v-3.603l8.897-5.93c.168-.112.3-.27.38-.455l2.447-5.712 1.875 2.626.658 2.635c.236.941.546 1.862.928 2.755l2.546 5.938.696 2.786zm-7.624-30.157s.637-1.97.637-2.08h2.08v2.08H24.32zm4.014-9.336c.206.345.292.75.244 1.149a1.035 1.035 0 0 0-1.541.907v3.12h-4.16v-2.37l2.409-.803a1.04 1.04 0 0 0 .71-.986v-2.259c.002-.664-.165-1.318-.483-1.901h.936l1.885 3.143zM23.918 4.624a2.325 2.325 0 0 1 .686-1.654l.133-.134a2.21 2.21 0 0 1 1.573-.651c.432-.002.851.152 1.18.433l-1.978.66a1.039 1.039 0 0 0-.602.521l-.752 1.505h-.24v-.68zm0 2.76h.883c.394 0 .754-.223.93-.575l.847-1.694 1.5-.5v2.77h-1.04a1.04 1.04 0 0 0-1.04 1.039v1.04h-2.08v-2.08zm-3.395-1.76c-.703.47-1.53.72-2.376.72h-.342a4.251 4.251 0 0 1-2.799-1.04h.467a6.326 6.326 0 0 0 4.501-1.864 4.25 4.25 0 0 1 2.583-1.232 4.388 4.388 0 0 0-.719 2.416v.124l-1.315.876zm-.278 18.399L15.96 18.88a1.565 1.565 0 0 1-.361-1v-.06a1.55 1.55 0 0 1 .457-1.104l4.616-4.616a1.902 1.902 0 0 1 3.246 1.344v1.509l-1.799.6-.585-.585a1.04 1.04 0 0 0-1.47 0l-2.08 2.08c-.351.35-.405.899-.13 1.312l2.08 3.12c.128.192.316.336.536.409l2.133.71-.474 1.423h-1.884zm.553-6.849v1.854l-.742-1.112.742-.742zm-1.395 22.19a1.04 1.04 0 0 0 .302-.454l2.118-6.353.125.25c.024.049.052.095.084.14l1.795 2.513-2.823 6.587-8.237 5.492-.997-1.496 7.633-6.679zM7.425 48.935l.592-1.184 1.957-.652 1.465 2.197v3.095l-1.617.54-2.397-3.996zM4.16 60.42a2.08 2.08 0 1 1 0-4.16 2.08 2.08 0 0 1 0 4.16zm13.038 0H7.76a4.145 4.145 0 0 0 0-4.16h9.438a4.145 4.145 0 0 0 0 4.16zm3.6 0a2.08 2.08 0 1 1 0-4.16 2.08 2.08 0 0 1 0 4.16zm13.039 0h-9.438a4.145 4.145 0 0 0 0-4.16h9.439a4.145 4.145 0 0 0 0 4.16h-.001zm3.6 0a2.08 2.08 0 1 1 0-4.16 2.08 2.08 0 0 1 0 4.16zm-3.403-6.46l-.536-2.143 3.027-.756h3.282l.448 1.343-6.221 1.555zm13.802 6.46h-6.798a4.145 4.145 0 0 0 0-4.16h6.798v4.16zm-5.2-34.318v-2.08h11.44c.393 0 .754-.222.93-.574l2.746-5.493 2.15.537-3.383 7.61H42.636zm5.63 2.08h2.26l6.67 6.67v13.089h-2.08V35.46c0-.275-.11-.54-.305-.735l-6.544-6.544zm12.05 32.238h-10.4v-4.823l4.647-5.576h3.152l2.6 3.466v6.933z"/></svg></svg>