<svg width="239" height="89" xmlns="http://www.w3.org/2000/svg" xmlns:xlink="http://www.w3.org/1999/xlink" xmlns:svgjs="http://svgjs.com/svgjs" viewBox="319 8937 239 89"><svg width="109" height="68" xmlns="http://www.w3.org/2000/svg" xmlns:xlink="http://www.w3.org/1999/xlink" xmlns:svgjs="http://svgjs.com/svgjs" viewBox="415 8947 109 68" x="415" y="8947"><svg width="109" height="25" xmlns="http://www.w3.org/2000/svg" xmlns:xlink="http://www.w3.org/1999/xlink" xmlns:svgjs="http://svgjs.com/svgjs" viewBox="415 8959 109 25" x="415" y="8959"><svg width="20" height="25" xmlns="http://www.w3.org/2000/svg" xmlns:xlink="http://www.w3.org/1999/xlink" xmlns:svgjs="http://svgjs.com/svgjs" viewBox="0.447 0 19.106 25" fill="#e41c26" x="415" y="8959"><svg xmlns="http://www.w3.org/2000/svg" xmlns:xlink="http://www.w3.org/1999/xlink" width="20" height="25" viewBox="0.693 0.401 18.664 24.421"><path paint-order="stroke fill markers" fill-rule="evenodd" d="M19.357 6.96h-5.72v17.862H6.413V6.96H.693V.401h18.664v6.558z"/></svg></svg><svg width="22" height="25" xmlns="http://www.w3.org/2000/svg" xmlns:xlink="http://www.w3.org/1999/xlink" xmlns:svgjs="http://svgjs.com/svgjs" viewBox="0 0.14 22 24.719" fill="#e41c26" x="438" y="8959"><svg xmlns="http://www.w3.org/2000/svg" xmlns:xlink="http://www.w3.org/1999/xlink" width="22" height="25" viewBox="0.09 0.401 21.735 24.421"><path paint-order="stroke fill markers" fill-rule="evenodd" d="M9.964 16.972H7.312v7.85H.09V.401h10.012c6.734 0 10.013 3.384 10.013 8.757 0 3.105-1.255 5.233-3.488 6.454l5.198 9.21H13.94l-3.976-7.85zM7.312 11.32h2.79c1.641 0 2.722-.557 2.722-2.162 0-1.465-.837-2.199-2.722-2.199h-2.79v4.361z"/></svg></svg><svg width="26" height="25" xmlns="http://www.w3.org/2000/svg" xmlns:xlink="http://www.w3.org/1999/xlink" xmlns:svgjs="http://svgjs.com/svgjs" viewBox="0.072 0 25.857 25" fill="#e41c26" x="461" y="8959"><svg xmlns="http://www.w3.org/2000/svg" xmlns:xlink="http://www.w3.org/1999/xlink" width="26" height="25" viewBox="0.115 0.401 25.258 24.421"><path paint-order="stroke fill markers" fill-rule="evenodd" d="M16.477 20.915H9.01L7.93 24.822H.115L8.28.401h8.93l8.165 24.421h-7.816l-1.081-3.907zm-1.43-5.164l-2.303-8.338-2.304 8.338h4.607z"/></svg></svg><svg width="8" height="25" xmlns="http://www.w3.org/2000/svg" xmlns:xlink="http://www.w3.org/1999/xlink" xmlns:svgjs="http://svgjs.com/svgjs" viewBox="0.303 0 7.394 25" fill="#e41c26" x="489" y="8959"><svg xmlns="http://www.w3.org/2000/svg" xmlns:xlink="http://www.w3.org/1999/xlink" width="8" height="25" viewBox="0.41 0.401 7.223 24.421"><path paint-order="stroke fill markers" fill-rule="evenodd" d="M7.633.4v24.422H.41V.401h7.223z"/></svg></svg><svg width="23" height="25" xmlns="http://www.w3.org/2000/svg" xmlns:xlink="http://www.w3.org/1999/xlink" xmlns:svgjs="http://svgjs.com/svgjs" viewBox="0.25 0 22.5 25" fill="#e41c26" x="501" y="8959"><svg xmlns="http://www.w3.org/2000/svg" xmlns:xlink="http://www.w3.org/1999/xlink" width="23" height="25" viewBox="0.41 0.401 21.98 24.421"><path paint-order="stroke fill markers" fill-rule="evenodd" d="M22.39.4v24.422h-6.454L7.633 11.81v13.013H.41V.401h6.455l8.338 13.013V.4h7.187z"/></svg></svg></svg><svg width="105" height="25" xmlns="http://www.w3.org/2000/svg" xmlns:xlink="http://www.w3.org/1999/xlink" xmlns:svgjs="http://svgjs.com/svgjs" viewBox="417 8990 105 25" x="417" y="8990"><svg width="23" height="25" xmlns="http://www.w3.org/2000/svg" xmlns:xlink="http://www.w3.org/1999/xlink" xmlns:svgjs="http://svgjs.com/svgjs" viewBox="0.214 0 22.572 25" fill="#e41c26" x="417" y="8990"><svg xmlns="http://www.w3.org/2000/svg" xmlns:xlink="http://www.w3.org/1999/xlink" width="23" height="25" viewBox="0.837 0.129 22.049 24.421"><path paint-order="stroke fill markers" fill-rule="evenodd" d="M22.886.13v24.42h-7.22v-9.07H8.06v9.07H.837V.13H8.06v8.895h7.606V.13h7.22z"/></svg></svg><svg width="27" height="25" xmlns="http://www.w3.org/2000/svg" xmlns:xlink="http://www.w3.org/1999/xlink" xmlns:svgjs="http://svgjs.com/svgjs" viewBox="0.571 0 25.859 25" fill="#e41c26" x="443" y="8990"><svg xmlns="http://www.w3.org/2000/svg" xmlns:xlink="http://www.w3.org/1999/xlink" width="27" height="25" viewBox="0.863 0.129 25.26 24.421"><path paint-order="stroke fill markers" fill-rule="evenodd" d="M17.227 20.643H9.76L8.68 24.55H.863L9.027.13h8.932l8.164 24.42h-7.815l-1.08-3.907zm-1.432-5.163l-2.301-8.338-2.303 8.338h4.604z"/></svg></svg><svg width="22" height="25" xmlns="http://www.w3.org/2000/svg" xmlns:xlink="http://www.w3.org/1999/xlink" xmlns:svgjs="http://svgjs.com/svgjs" viewBox="0 0.141 22 24.719" fill="#e41c26" x="473" y="8990"><svg xmlns="http://www.w3.org/2000/svg" xmlns:xlink="http://www.w3.org/1999/xlink" width="22" height="25" viewBox="0.098 0.129 21.735 24.421"><path paint-order="stroke fill markers" fill-rule="evenodd" d="M9.972 16.7H7.32v7.85H.098V.13h10.013c6.733 0 10.012 3.383 10.012 8.756 0 3.105-1.255 5.233-3.488 6.454l5.198 9.21h-7.884L9.972 16.7zM7.32 11.05h2.791c1.641 0 2.722-.56 2.722-2.164 0-1.466-.838-2.198-2.722-2.198H7.32v4.361z"/></svg></svg><svg width="24" height="25" xmlns="http://www.w3.org/2000/svg" xmlns:xlink="http://www.w3.org/1999/xlink" xmlns:svgjs="http://svgjs.com/svgjs" viewBox="0.518 0 22.964 25" fill="#e41c26" x="498" y="8990"><svg xmlns="http://www.w3.org/2000/svg" xmlns:xlink="http://www.w3.org/1999/xlink" width="24" height="25" viewBox="0.809 0.129 22.432 24.421"><path paint-order="stroke fill markers" fill-rule="evenodd" d="M23.241 12.34c0 7.57-5.024 12.21-13.152 12.21H.81V.13h9.28c8.128 0 13.152 4.64 13.152 12.21zm-7.221 0c0-3.489-2.094-5.652-5.93-5.652H7.995v11.304h2.093c3.837 0 5.93-2.129 5.93-5.652z"/></svg></svg></svg><svg width="18" height="17" xmlns="http://www.w3.org/2000/svg" xmlns:xlink="http://www.w3.org/1999/xlink" xmlns:svgjs="http://svgjs.com/svgjs" viewBox="465 8947 18 17" x="465" y="8947"><svg width="18" height="17" xmlns="http://www.w3.org/2000/svg" xmlns:xlink="http://www.w3.org/1999/xlink" xmlns:svgjs="http://svgjs.com/svgjs" viewBox="0.064 0 17.872 17" fill="#e41c26" x="465" y="8947"><svg xmlns="http://www.w3.org/2000/svg" xmlns:xlink="http://www.w3.org/1999/xlink" width="18" height="17" viewBox="0.39 0.33 16.833 16.011"><path paint-order="stroke fill markers" fill-rule="evenodd" d="M8.805.33l2.603 5.271 5.815.845-4.209 4.103.996 5.793-5.205-2.735-5.203 2.735.994-5.793L.39 6.446l5.816-.845 2.6-5.27z"/></svg></svg></svg></svg><svg width="199" height="89" xmlns="http://www.w3.org/2000/svg" xmlns:xlink="http://www.w3.org/1999/xlink" xmlns:svgjs="http://svgjs.com/svgjs" viewBox="0 0.488 199 88.025" fill="#e41c26" x="359" y="8937"><svg xmlns="http://www.w3.org/2000/svg" xmlns:xlink="http://www.w3.org/1999/xlink" width="199" height="89" viewBox="0.488 0.441 198.127 87.638"><path paint-order="stroke fill markers" fill-rule="evenodd" d="M.488 15.664h3.674V4.114h171.032l19.344 40.146-19.344 40.146H4.162v-11.55H.488v15.223h177.013l21.114-43.819L177.501.441H.488v15.223z"/></svg></svg><svg width="84" height="46" xmlns="http://www.w3.org/2000/svg" xmlns:xlink="http://www.w3.org/1999/xlink" xmlns:svgjs="http://svgjs.com/svgjs" viewBox="319 8959 84 46" x="319" y="8959"><svg width="1" height="1" xmlns="http://www.w3.org/2000/svg" xmlns:xlink="http://www.w3.org/1999/xlink" xmlns:svgjs="http://svgjs.com/svgjs" viewBox="0 0.221 1 0.558" fill="#e41c26" x="367" y="8978"><svg xmlns="http://www.w3.org/2000/svg" xmlns:xlink="http://www.w3.org/1999/xlink" width="1" height="1" viewBox="0.05 0.214 0.95 0.53"><path paint-order="stroke fill markers" fill-rule="evenodd" d="M.525.745C.68.563.838.387 1 .215H.05c.162.172.322.348.475.53z"/></svg></svg><svg width="2" height="1" xmlns="http://www.w3.org/2000/svg" xmlns:xlink="http://www.w3.org/1999/xlink" xmlns:svgjs="http://svgjs.com/svgjs" viewBox="0.104 0 1.792 1" fill="#e41c26" x="363" y="8978"><svg xmlns="http://www.w3.org/2000/svg" xmlns:xlink="http://www.w3.org/1999/xlink" width="2" height="1" viewBox="0.663 0.214 0.95 0.53"><path paint-order="stroke fill markers" fill-rule="evenodd" d="M1.139.745c.153-.182.313-.358.475-.53h-.95c.164.172.322.348.475.53z"/></svg></svg><svg width="2" height="1" xmlns="http://www.w3.org/2000/svg" xmlns:xlink="http://www.w3.org/1999/xlink" xmlns:svgjs="http://svgjs.com/svgjs" viewBox="0.104 0 1.792 1" fill="#e41c26" x="370" y="8978"><svg xmlns="http://www.w3.org/2000/svg" xmlns:xlink="http://www.w3.org/1999/xlink" width="2" height="1" viewBox="0.437 0.214 0.95 0.53"><path paint-order="stroke fill markers" fill-rule="evenodd" d="M.913.745c.152-.182.312-.358.475-.53h-.95c.162.172.32.348.475.53z"/></svg></svg><svg width="2" height="1" xmlns="http://www.w3.org/2000/svg" xmlns:xlink="http://www.w3.org/1999/xlink" xmlns:svgjs="http://svgjs.com/svgjs" viewBox="0.104 0 1.792 1" fill="#e41c26" x="360" y="8978"><svg xmlns="http://www.w3.org/2000/svg" xmlns:xlink="http://www.w3.org/1999/xlink" width="2" height="1" viewBox="0.277 0.214 0.951 0.53"><path paint-order="stroke fill markers" fill-rule="evenodd" d="M.753.745c.154-.182.313-.358.474-.53h-.95C.44.386.6.562.753.744z"/></svg></svg><svg width="84" height="46" xmlns="http://www.w3.org/2000/svg" xmlns:xlink="http://www.w3.org/1999/xlink" xmlns:svgjs="http://svgjs.com/svgjs" viewBox="0 0.497 84 45.006" fill="#e41c26" x="319" y="8959"><svg xmlns="http://www.w3.org/2000/svg" xmlns:xlink="http://www.w3.org/1999/xlink" width="84" height="46" viewBox="0 0.418 83.503 44.74"><path paint-order="stroke fill markers" fill-rule="evenodd" d="M81.493 18.32h-.409v-8.226c0-2.196-1.837-3.975-4.103-3.975-2.268 0-4.106 1.78-4.106 3.975V4.393c0-2.195-1.838-3.975-4.106-3.975-2.267 0-4.103 1.78-4.103 3.975 0-2.195-1.838-3.975-4.105-3.975-2.267 0-4.105 1.78-4.105 3.975V19.19h-1.723c.21.215.415.434.61.661.298.348.58.707.822 1.106a9.168 9.168 0 0 1-1.143-.796A15.19 15.19 0 0 1 54 19.252c-.021-.02-.041-.042-.06-.062h-.704c-.02.02-.04.042-.062.062-.313.304-.641.596-.983.874.212.262.415.536.595.831a7.928 7.928 0 0 1-.89-.599c-.28.215-.573.418-.889.599.18-.295.383-.569.594-.831-.34-.278-.668-.57-.981-.874-.022-.02-.042-.042-.062-.062h-.704c-.02.02-.039.042-.061.062-.315.304-.641.596-.984.874.214.262.416.536.596.831a7.912 7.912 0 0 1-.89-.599 7.97 7.97 0 0 1-.888.599 7.4 7.4 0 0 1 .594-.831c-.342-.278-.67-.57-.985-.874l-.06-.062h-.702c-.02.02-.04.042-.062.062-.313.304-.642.596-.984.874.214.262.416.536.595.831a7.837 7.837 0 0 1-.888-.599 8.111 8.111 0 0 1-.89.599 7.63 7.63 0 0 1 .594-.831c-.342-.278-.67-.57-.984-.874-.02-.02-.039-.042-.06-.062h-.703l-.06.062a15.26 15.26 0 0 1-.984.874c.213.262.414.536.593.831a8.019 8.019 0 0 1-.889-.599c-.28.215-.573.418-.888.599.179-.295.383-.569.595-.831-.342-.278-.67-.57-.985-.874-.02-.02-.039-.042-.06-.062h-.704l-.06.062c-.316.304-.642.596-.983.874.212.262.413.536.594.831a8.043 8.043 0 0 1-.891-.599c-.28.215-.572.418-.888.599.18-.295.382-.569.594-.831-.34-.278-.67-.57-.983-.874l-.061-.062h-.703c-.02.02-.039.042-.06.062-.315.304-.643.596-.984.874.213.262.415.536.593.831a8.15 8.15 0 0 1-.888-.599 7.88 7.88 0 0 1-.89.599c.181-.295.382-.569.595-.831-.341-.278-.669-.57-.983-.874l-.061-.062h-.702c-.022.02-.041.042-.063.062-.314.304-.641.596-.983.874.212.262.416.536.595.831a7.922 7.922 0 0 1-.889-.599c-.28.215-.573.418-.888.599.179-.295.38-.569.592-.831-.34-.278-.669-.57-.983-.874l-.061-.062h-.703c-.021.02-.04.042-.06.062-.327.317-.67.62-1.026.909-.358.286-.73.56-1.141.796.242-.399.526-.758.822-1.106.195-.227.4-.446.61-.66h-1.723V4.392c0-2.195-1.839-3.975-4.105-3.975-2.266 0-4.106 1.78-4.106 3.975 0-2.195-1.835-3.975-4.103-3.975-2.267 0-4.105 1.78-4.105 3.975v5.7c0-2.195-1.838-3.974-4.106-3.974-2.265 0-4.104 1.78-4.104 3.975v8.226H2.01C.9 18.32 0 19.192 0 20.266v5.045c0 1.075.9 1.946 2.01 1.946h.408v8.226c0 2.196 1.839 3.975 4.104 3.975 2.268 0 4.106-1.78 4.106-3.975v5.7c0 2.196 1.838 3.975 4.105 3.975 2.268 0 4.103-1.779 4.103-3.974 0 2.195 1.84 3.974 4.106 3.974s4.105-1.779 4.105-3.974V26.387h29.409v14.797c0 2.195 1.838 3.974 4.105 3.974 2.267 0 4.105-1.779 4.105-3.974 0 2.195 1.836 3.974 4.103 3.974 2.268 0 4.106-1.779 4.106-3.974v-5.7c0 2.195 1.838 3.974 4.106 3.974 2.266 0 4.103-1.78 4.103-3.975v-8.226h.41c1.11 0 2.01-.871 2.01-1.946v-5.045c0-1.074-.9-1.946-2.01-1.946zM7.146 17.46c-.125.912-.291 1.824-.624 2.736-.33-.912-.497-1.824-.62-2.736a21.366 21.366 0 0 1-.169-2.736c.001-.913.054-1.825.171-2.737.124-.913.29-1.825.618-2.737.33.912.497 1.824.621 2.737.117.912.17 1.824.17 2.737.003.912-.053 1.824-.167 2.736zm8.208-5.473c-.123.912-.288 1.824-.621 2.737-.334-.913-.498-1.825-.622-2.737a22.006 22.006 0 0 1 .003-5.474c.124-.912.288-1.824.619-2.736.33.912.496 1.824.62 2.736a22.006 22.006 0 0 1 .001 5.474zm8.21 0c-.124.912-.29 1.824-.622 2.737-.332-.913-.498-1.825-.621-2.737a21.189 21.189 0 0 1-.169-2.737c.002-.912.055-1.825.171-2.737.124-.912.289-1.824.62-2.736.33.912.494 1.824.619 2.736a21.8 21.8 0 0 1 .17 2.737c.002.912-.052 1.824-.167 2.737zm37.618 0c-.123.912-.288 1.824-.62 2.737-.333-.913-.5-1.825-.622-2.737a21.92 21.92 0 0 1 .003-5.474c.122-.912.288-1.824.618-2.736.331.912.495 1.824.62 2.736a22.092 22.092 0 0 1 .001 5.474zm8.21 0c-.123.912-.29 1.824-.623 2.737-.33-.913-.497-1.825-.62-2.737a21.548 21.548 0 0 1-.169-2.737c.002-.912.054-1.825.17-2.737.125-.912.292-1.824.62-2.736.331.912.495 1.824.62 2.736a22.094 22.094 0 0 1 .002 5.474zm8.209 5.473c-.123.912-.289 1.824-.62 2.736-.333-.912-.5-1.824-.623-2.736a21.422 21.422 0 0 1-.169-2.736 21.94 21.94 0 0 1 .171-2.737c.124-.913.29-1.825.62-2.737.33.912.497 1.824.619 2.737.116.912.171 1.824.171 2.737.002.912-.052 1.824-.169 2.736z"/></svg></svg><svg width="2" height="1" xmlns="http://www.w3.org/2000/svg" xmlns:xlink="http://www.w3.org/1999/xlink" xmlns:svgjs="http://svgjs.com/svgjs" viewBox="0.103 0 1.793 1" fill="#e41c26" x="350" y="8978"><svg xmlns="http://www.w3.org/2000/svg" xmlns:xlink="http://www.w3.org/1999/xlink" width="2" height="1" viewBox="0.115 0.214 0.951 0.53"><path paint-order="stroke fill markers" fill-rule="evenodd" d="M.59.745a12.8 12.8 0 0 1 .476-.53h-.95c.162.172.32.348.475.53z"/></svg></svg><svg width="2" height="1" xmlns="http://www.w3.org/2000/svg" xmlns:xlink="http://www.w3.org/1999/xlink" xmlns:svgjs="http://svgjs.com/svgjs" viewBox="0.105 0 1.79 1" fill="#e41c26" x="356" y="8978"><svg xmlns="http://www.w3.org/2000/svg" xmlns:xlink="http://www.w3.org/1999/xlink" width="2" height="1" viewBox="0.89 0.214 0.95 0.53"><path paint-order="stroke fill markers" fill-rule="evenodd" d="M1.366.745c.152-.182.31-.358.474-.53H.89c.161.172.321.348.476.53z"/></svg></svg><svg width="2" height="1" xmlns="http://www.w3.org/2000/svg" xmlns:xlink="http://www.w3.org/1999/xlink" xmlns:svgjs="http://svgjs.com/svgjs" viewBox="0.103 0 1.793 1" fill="#e41c26" x="353" y="8978"><svg xmlns="http://www.w3.org/2000/svg" width="2" height="1" viewBox="0.503 0.214 0.951 0.53"><path paint-order="stroke fill markers" fill-rule="evenodd" d="M.979.745c.153-.182.313-.358.475-.53H.503c.163.172.323.348.476.53z"/></svg></svg></svg></svg>