<svg width="63" height="42" xmlns="http://www.w3.org/2000/svg" xmlns:xlink="http://www.w3.org/1999/xlink" xmlns:svgjs="http://svgjs.com/svgjs" viewBox="0 0.525 63 40.95" fill="#e41c26"><svg xmlns="http://www.w3.org/2000/svg" width="63" height="42" viewBox="0 0.619 62.395 40.556"><path paint-order="stroke fill markers" fill-rule="evenodd" d="M5.082 26.166l8.92 3.43 10.303 9.445a8.096 8.096 0 0 0 5.487 2.134h6.085a8.359 8.359 0 0 0 6.656-3.327l3.087-4.117 3.256 4.653v1.751c0 .575.466 1.04 1.04 1.04h11.439a1.04 1.04 0 0 0 1.04-1.04v-2.08c0-.373-.2-.717-.524-.902l-4.755-2.718-2.392-11.958a5.214 5.214 0 0 0-5.098-4.18h-6.9a8.732 8.732 0 0 0-6.214 2.574l-2.638 2.639-2.677-4.461V7.104a6.52 6.52 0 0 0-.684-2.9 6.45 6.45 0 0 0-5.8-3.585c-1.32 0-2.63.192-3.892.57l-8.64 2.593a1.04 1.04 0 0 0-.567.42L9.732 7.023l-2.781.927c-.18.06-.339.167-.461.31l-4.581 5.345a7.93 7.93 0 0 0 3.173 12.56zm20.629 11.342l-1.51-1.384 11.156-11.157 4.577 4.577-5.36 7.2a6.04 6.04 0 0 1-8.863.764zm15.158-.909a6.27 6.27 0 0 1-4.992 2.497h-.665a8.02 8.02 0 0 0 1.015-1.09l.01-.012 6.374-8.562 1.754 2.507-3.496 4.66zm19.446 2.497h-9.359v-.61l3.293-3.293 6.066 3.466v.437zm-10.69-18.719a3.128 3.128 0 0 1 3.06 2.508l1.922 9.61-3.802-8.871a8.776 8.776 0 0 0-2.4-3.247h1.22zm-6.899 0a6.701 6.701 0 0 1 6.167 4.066l3.95 9.215-2.786 2.785-6.569-9.383a1.04 1.04 0 0 0-1.686-.025l-.612.823-4.362-4.361 1.155-1.155a6.665 6.665 0 0 1 4.744-1.965zm-10.368 4.648l-9.692 9.692-7.405-6.787a1.04 1.04 0 0 0-.329-.204L10.6 26.059l1.563-5.47 2.997.75a5.45 5.45 0 0 0 8.756-4.258l.336-2.943h4.866v5.199c0 .189.051.374.148.535l3.092 5.153zm-10.081-11.92l-2.823-2.822-.725-.726-.035-.032 4.043-.45-.46 4.03zm-5.03-2.087l-2.384 2.384c-.195.195-.304.46-.304.736v1.648l-1.04 1.04-.951-.95.73-3.649a2.347 2.347 0 0 1 3.95-1.209zm-2.258 7.28l1.345-1.345a1.04 1.04 0 0 0 .305-.736v-1.65l2.08-2.079 2.132 2.132a3.372 3.372 0 0 1-4.77 4.77l-1.092-1.093zm-4.285-1.345l1.505 1.505-3.316-.83 1.805-3.007-.279 1.392a1.04 1.04 0 0 0 .285.94zm2.432-11.286l8.284-2.485a11.442 11.442 0 0 1 3.292-.484 4.381 4.381 0 0 1 3.94 2.436c.306.611.465 1.286.466 1.97v4.954H24.49l.461-4.042a1.04 1.04 0 0 0-1.148-1.152l-9.359 1.04c-.235.026-.453.131-.62.299L12.64 9.385l-.992-1.487 1.487-2.231zm-9.648 9.292l4.394-5.126 2.093-.697 1.166 1.749-1.477 1.477c-.06.06-.113.128-.157.2l-3.12 5.2a1.04 1.04 0 0 0 .64 1.544l3.117.78L8.65 25.31l-2.822-1.086a5.848 5.848 0 0 1-2.341-9.265z"/></svg></svg>